<?xml version="1.0" encoding="UTF-8"?>
<svg xmlns="http://www.w3.org/2000/svg" id="Layer_1" data-name="Layer 1" viewBox="0 0 24 24">
  <path d="m6.5,0C2.91,0,0,2.91,0,6.5s2.91,6.5,6.5,6.5,6.5-2.91,6.5-6.5S10.09,0,6.5,0Zm-1.479,5.24l3.286.548c1.271.211,2.193,1.3,2.193,2.588,0,1.447-1.177,2.624-2.624,2.624h-.376v1h-2v-1c-1.654,0-3-1.346-3-3h2c0,.551.449,1,1,1h2.376c.344,0,.624-.28.624-.624,0-.307-.22-.565-.521-.616l-3.286-.548c-1.27-.211-2.192-1.3-2.192-2.588,0-1.447,1.177-2.624,2.624-2.624h.376v-1h2v1c1.654,0,3,1.346,3,3h-2c0-.551-.448-1-1-1h-2.376c-.344,0-.624.28-.624.624,0,.307.219.565.521.616Zm17.975,8.38l-5,2.857-5-2.857,5-2.857,5,2.857Zm-10.996,1.803l5,2.857v5.72l-5-2.857v-5.72Zm7,2.857l5-2.857v5.72l-5,2.857v-5.72Zm-10.293.513c.39.391.39,1.024,0,1.414l-3.707,3.793v-3h-1.5c-1.93,0-3.5-1.57-3.5-3.5v-2.5h3v2.5c0,.275.224.5.5.5h1.5v-3l3.707,3.793Zm15.293-12.293v2.5h-3v-2.5c0-.275-.224-.5-.5-.5h-1.5v3l-3.707-3.793c-.39-.39-.39-1.024,0-1.414l3.707-3.793v3h1.5c1.93,0,3.5,1.57,3.5,3.5Z"/>
</svg>
